<?xml version="1.0" encoding="UTF-8"?>
<svg id="Layer_2" data-name="Layer 2" xmlns="http://www.w3.org/2000/svg" viewBox="0 0 913.95 261.68">
  <defs>
    <style>
      .cls-1, .cls-2 {
        fill: #ff872e;
      }

      .cls-1, .cls-3 {
        fill-rule: evenodd;
      }

      .cls-3 {
        fill: #00ada8;
      }

      .cls-4 {
        fill: #434343;
      }
    </style>
  </defs>
  <g id="Layer_1-2" data-name="Layer 1">
    <g>
      <g>
        <polygon class="cls-3" points="42.3 103.82 230.67 175.69 106.03 175.69 0 261.68 42.3 103.82"/>
        <polygon class="cls-3" points="70.12 0 328.33 0 309.08 71.87 50.87 71.87 70.12 0"/>
        <polygon class="cls-1" points="249.93 103.81 230.68 175.68 106.19 103.81 249.93 103.81"/>
      </g>
      <g>
        <path class="cls-4" d="M474.18,80.97v-29.71h-97.27v152.75h29.71v-61.49h56.94v-29.71h-56.94v-31.84h67.56Z"/>
        <path class="cls-4" d="M540.79,49.85l-66.55,153.93h32.36l34.1-78.88,33.9,78.88h32.33l-66.14-153.93Z"/>
        <path class="cls-4" d="M750.2,51.26h-114.66v29.71h63.57l-70.01,123.03h121.04v-29.71h-69.95l70.01-123.03Z"/>
        <path class="cls-4" d="M904,89.96l-1,.26-29.36,7.75c6.63,8.06,10.61,18.37,10.61,29.61-.03,25.74-20.88,46.6-46.62,46.63-25.74,0-46.61-20.88-46.61-46.63s20.87-46.62,46.61-46.62c11.23,0,21.53,3.97,29.58,10.59l7.87-29.08.32-1.19c-11.13-6.37-24.03-10.01-37.77-10.03-42.15,0-76.32,34.18-76.32,76.33s34.17,76.34,76.32,76.34,76.32-34.18,76.32-76.34c0-13.68-3.62-26.52-9.95-37.62Z"/>
      </g>
    </g>
    <path class="cls-2" d="M870.61,94.63l31.24-8.25c-4.62-7.19-10.42-13.55-17.12-18.82-.31-.24-.61-.47-.9-.69-.36-.27-.71-.52-1.04-.76-2.31-1.67-3.85-2.6-3.85-2.6l-8.4,31.05s.04.04.07.07Z"/>
  </g>
</svg>